<?xml version="1.0" encoding="UTF-8"?>
<svg width="1024px" height="1024px" viewBox="0 0 1024 1024" version="1.1" xmlns="http://www.w3.org/2000/svg" xmlns:xlink="http://www.w3.org/1999/xlink">
    <title>Artboard</title>
    <defs>
        <filter id="filter-1">
            <feColorMatrix in="SourceGraphic" type="matrix" values="0 0 0 0 1.000000 0 0 0 0 1.000000 0 0 0 0 1.000000 0 0 0 1.000000 0"></feColorMatrix>
        </filter>
    </defs>
    <g id="Artboard" stroke="none" stroke-width="1" fill="none" fill-rule="evenodd">
        <g filter="url(#filter-1)" id="Lock-icon">
            <g transform="translate(0.000000, 105.000000)">
                <path d="M919,815 L499,815 C474.186,815 454,794.787199 454,769.944717 L454,739.907862 C454,731.611683 460.716,724.889435 469,724.889435 C477.284,724.889435 484,731.611683 484,739.907862 L484,769.944717 C484,778.22688 490.728,784.963145 499,784.963145 L919,784.963145 C927.272,784.963145 934,778.22688 934,769.944717 L934,349.428747 C934,341.146585 927.272,334.410319 919,334.410319 L499,334.410319 C490.728,334.410319 484,341.146585 484,349.428747 L484,679.834152 C484,688.130332 477.284,694.85258 469,694.85258 L75,694.85258 C33.644,694.85258 0,661.167248 0,619.760442 L0,75.0921376 C0,33.6853317 33.644,0 75,0 L298.468,0 C306.752,0 313.468,6.72224816 313.468,15.0184275 C313.468,23.3146069 306.752,30.036855 298.468,30.036855 L75,30.036855 C50.186,30.036855 30,50.249656 30,75.0921376 L30,114.140049 L994,114.140049 L994,75.0921376 C994,50.249656 973.812,30.036855 949,30.036855 L368.468,30.036855 C360.184,30.036855 353.468,23.3146069 353.468,15.0184275 C353.468,6.72224816 360.184,0 368.468,0 L949,0 C990.356,0 1024,33.6853317 1024,75.0921376 L1024,619.760442 C1024,656.022936 998.192,686.366167 964,693.34473 L964,769.944717 C964,794.787199 943.812,815 919,815 Z M30,254.312039 L30,619.760442 C30,644.602924 50.186,664.815725 75,664.815725 L454,664.815725 L454,494.60688 L195,494.60688 C186.716,494.60688 180,487.884631 180,479.588452 C180,471.292273 186.716,464.570025 195,464.570025 L454,464.570025 L454,404.496314 L195,404.496314 C186.716,404.496314 180,397.774066 180,389.477887 C180,381.181708 186.716,374.459459 195,374.459459 L454,374.459459 L454,349.428747 C454,324.586265 474.186,304.373464 499,304.373464 L919,304.373464 C943.812,304.373464 964,324.586265 964,349.428747 L964,662.242568 C981.46,656.042961 994,639.340467 994,619.760442 L994,254.312039 L697,254.312039 C688.714,254.312039 682,247.589791 682,239.293612 C682,230.997432 688.714,224.275184 697,224.275184 L994,224.275184 L994,144.176904 L30,144.176904 L30,224.275184 L629,224.275184 C637.286,224.275184 644,230.997432 644,239.293612 C644,247.589791 637.286,254.312039 629,254.312039 L30,254.312039 Z M704,724.889435 C645.458,724.889435 605.554,714.456634 586.982,708.241007 C576.224,704.634582 569,694.580246 569,683.218305 L569,556.304582 C569,544.942641 576.224,534.888305 586.976,531.283882 C593.44,529.119226 602.484,526.445946 614,523.878796 L614,454.55774 C614,404.870774 654.374,364.447174 704,364.447174 C753.626,364.447174 794,404.870774 794,454.55774 L794,523.876794 C805.512,526.443943 814.556,529.117224 821.018,531.279877 C831.776,534.886302 839,544.940639 839,556.30258 L839,683.216302 C839,694.578243 831.776,704.63258 821.024,708.237002 C802.446,714.456634 762.542,724.889435 704,724.889435 Z M599,680.569054 C614.324,685.441032 650.83,694.85258 704,694.85258 C757.166,694.85258 793.67,685.443034 809,680.569054 L809,558.95183 C793.676,554.079853 757.17,544.668305 704,544.668305 C650.834,544.668305 614.33,554.07785 599,558.95183 L599,680.569054 Z M704,394.484029 C670.916,394.484029 644,421.433096 644,454.55774 L644,518.546253 C661.04,516.22941 681.092,514.63145 704,514.63145 C726.908,514.63145 746.96,516.22941 764,518.546253 L764,454.55774 C764,421.433096 737.084,394.484029 704,394.484029 L704,394.484029 Z M330.532,584.717445 L195,584.717445 C186.716,584.717445 180,577.995197 180,569.699017 C180,561.402838 186.716,554.68059 195,554.68059 L330.532,554.68059 C338.816,554.68059 345.532,561.402838 345.532,569.699017 C345.532,577.995197 338.816,584.717445 330.532,584.717445 Z" id="Shape" fill="#000000" fill-rule="nonzero"></path>
            </g>
        </g>
    </g>
</svg>