<?xml version="1.0" encoding="UTF-8"?>
<svg width="1024px" height="1024px" viewBox="0 0 1024 1024" version="1.1" xmlns="http://www.w3.org/2000/svg" xmlns:xlink="http://www.w3.org/1999/xlink">
    <title>Artboard</title>
    <defs>
        <filter id="filter-1">
            <feColorMatrix in="SourceGraphic" type="matrix" values="0 0 0 0 1.000000 0 0 0 0 1.000000 0 0 0 0 1.000000 0 0 0 1.000000 0"></feColorMatrix>
        </filter>
        <filter id="filter-2">
            <feColorMatrix in="SourceGraphic" type="matrix" values="0 0 0 0 1.000000 0 0 0 0 1.000000 0 0 0 0 1.000000 0 0 0 1.000000 0"></feColorMatrix>
        </filter>
    </defs>
    <g id="Artboard" stroke="none" stroke-width="1" fill="none" fill-rule="evenodd">
        <rect id="Rectangle" fill="#161616" x="0" y="0" width="1024" height="1024"></rect>
        <g filter="url(#filter-1)" id="bill">
            <g transform="translate(65.000000, 51.000000)">
                <path d="M870.370044,0 L23.6299559,0 C10.6334802,0 0,10.6340943 0,23.6313207 C0,36.628547 10.6334802,47.2626413 23.6299559,47.2626413 L74.6312775,47.2626413 L74.6312775,898.777896 C74.6312775,907.442714 79.3572687,915.516748 87.0370044,919.65223 C94.7167401,923.787711 103.971806,923.393855 111.257709,918.470664 L213.851101,850.136761 L316.838326,918.667591 C324.714978,923.984638 335.151542,923.984638 343.028194,918.667591 L445.621586,850.333689 L548.608811,918.864519 C556.485463,924.181566 566.922026,924.181566 574.798678,918.864519 L677.39207,850.530617 L780.379295,919.061447 C784.317621,921.621506 788.846696,923 793.375771,923 C797.117181,923 801.055507,922.015362 804.6,920.243013 C812.279736,916.107531 817.005727,908.033497 817.005727,899.368679 L816.611894,47.8534244 L870.370044,47.8534244 C883.36652,47.8534244 894,37.2193301 894,24.2221037 C894,11.2248773 883.36652,0 870.370044,0 Z M769.942731,854.666098 L690.585463,801.889482 C682.708811,796.572434 672.272247,796.572434 664.395595,801.889482 L561.802203,870.420311 L458.814978,801.889482 C450.938326,796.572434 440.501762,796.572434 432.62511,801.889482 L330.031718,870.223384 L227.044493,801.889482 C219.167841,796.572434 208.731278,796.572434 200.854626,801.889482 L121.891189,854.46917 L121.891189,47.0657137 L769.745815,47.0657137 L769.942731,854.666098 Z" id="Shape" fill="#000000" fill-rule="nonzero"></path>
                <path d="M230.647295,377 L478.352705,377 C491.358717,377 502,366.425 502,353.5 C502,340.575 491.358717,330 478.352705,330 L230.647295,330 C217.641283,330 207,340.575 207,353.5 C207,366.425 217.444222,377 230.647295,377 Z" id="Path" fill="#000000" fill-rule="nonzero"></path>
                <path d="M230.654822,459 L416.345178,459 C429.35533,459 440,448.425 440,435.5 C440,422.575 429.35533,412 416.345178,412 L230.654822,412 C217.64467,412 207,422.575 207,435.5 C207,448.425 217.447547,459 230.654822,459 Z" id="Path" fill="#000000" fill-rule="nonzero"></path>
                <path d="M601.610108,377 L663.389892,377 C676.375451,377 687,366.425 687,353.5 C687,340.575 676.375451,330 663.389892,330 L601.610108,330 C588.624549,330 578,340.575 578,353.5 C578,366.425 588.427798,377 601.610108,377 Z" id="Path" fill="#000000" fill-rule="nonzero"></path>
                <path d="M601.610108,459 L663.389892,459 C676.375451,459 687,448.425 687,435.5 C687,422.575 676.375451,412 663.389892,412 L601.610108,412 C588.624549,412 578,422.575 578,435.5 C578,448.425 588.427798,459 601.610108,459 Z" id="Path" fill="#000000" fill-rule="nonzero"></path>
                <path d="M230.647295,188 L478.352705,188 C491.358717,188 502,177.425 502,164.5 C502,151.575 491.358717,141 478.352705,141 L230.647295,141 C217.641283,141 207,151.575 207,164.5 C207,177.425 217.444222,188 230.647295,188 Z" id="Path" fill="#000000" fill-rule="nonzero"></path>
                <path d="M230.654822,270 L416.345178,270 C429.35533,270 440,259.425 440,246.5 C440,233.575 429.35533,223 416.345178,223 L230.654822,223 C217.64467,223 207,233.575 207,246.5 C207,259.425 217.447547,270 230.654822,270 Z" id="Path" fill="#000000" fill-rule="nonzero"></path>
                <path d="M596.610108,188 L658.389892,188 C671.375451,188 682,177.425 682,164.5 C682,151.575 671.375451,141 658.389892,141 L596.610108,141 C583.624549,141 573,151.575 573,164.5 C573,177.425 583.427798,188 596.610108,188 Z" id="Path" fill="#000000" fill-rule="nonzero"></path>
                <path d="M596.610108,270 L658.389892,270 C671.375451,270 682,259.425 682,246.5 C682,233.575 671.375451,223 658.389892,223 L596.610108,223 C583.624549,223 573,233.575 573,246.5 C573,259.425 583.427798,270 596.610108,270 Z" id="Path" fill="#000000" fill-rule="nonzero"></path>
                <path d="M230.647295,569 L478.352705,569 C491.358717,569 502,558.425 502,545.5 C502,532.575 491.358717,522 478.352705,522 L230.647295,522 C217.641283,522 207,532.575 207,545.5 C207,558.425 217.444222,569 230.647295,569 Z" id="Path" fill="#000000" fill-rule="nonzero"></path>
                <path d="M230.654822,651 L416.345178,651 C429.35533,651 440,640.425 440,627.5 C440,614.575 429.35533,604 416.345178,604 L230.654822,604 C217.64467,604 207,614.575 207,627.5 C207,640.425 217.447547,651 230.654822,651 Z" id="Path" fill="#000000" fill-rule="nonzero"></path>
                <path d="M601.610108,569 L663.389892,569 C676.375451,569 687,558.425 687,545.5 C687,532.575 676.375451,522 663.389892,522 L601.610108,522 C588.624549,522 578,532.575 578,545.5 C578,558.425 588.427798,569 601.610108,569 Z" id="Path" fill="#000000" fill-rule="nonzero"></path>
                <path d="M601.610108,651 L663.389892,651 C676.375451,651 687,640.425 687,627.5 C687,614.575 676.375451,604 663.389892,604 L601.610108,604 C588.624549,604 578,614.575 578,627.5 C578,640.425 588.427798,651 601.610108,651 Z" id="Path" fill="#000000" fill-rule="nonzero"></path>
            </g>
        </g>
        <rect id="Rectangle" fill="#161616" x="638" y="348" width="336" height="480"></rect>
        <g filter="url(#filter-2)" id="calculator">
            <g transform="translate(638.000000, 348.000000)">
                <path d="M328,0 L8,0 C3.582,0 0,3.582 0,8 L0,456 C0,469.255 10.745,480 24,480 L312,480 C325.255,480 336,469.255 336,456 L336,8 C336,3.582 332.418,0 328,0 Z M320,456 C320,460.418 316.418,464 312,464 L24,464 C19.582,464 16,460.418 16,456 L16,16 L320,16 L320,456 Z" id="Shape" fill="#000000" fill-rule="nonzero"></path>
                <path d="M296,32 L40,32 C35.582,32 32,35.582 32,40 L32,136 C32,149.255 42.745,160 56,160 L280,160 C293.255,160 304,149.255 304,136 L304,40 C304,35.582 300.418,32 296,32 Z M288,136 C288,140.418 284.418,144 280,144 L56,144 C51.582,144 48,140.418 48,136 L48,48 L288,48 L288,136 Z" id="Shape" fill="#000000" fill-rule="nonzero"></path>
                <rect id="Rectangle" fill="#000000" fill-rule="nonzero" x="144" y="232" width="48" height="16"></rect>
                <rect id="Rectangle" fill="#000000" fill-rule="nonzero" x="224" y="232" width="48" height="16"></rect>
                <rect id="Rectangle" fill="#000000" fill-rule="nonzero" x="64" y="232" width="48" height="16"></rect>
                <rect id="Rectangle" fill="#000000" fill-rule="nonzero" x="144" y="312" width="48" height="16"></rect>
                <rect id="Rectangle" fill="#000000" fill-rule="nonzero" x="224" y="312" width="48" height="16"></rect>
                <rect id="Rectangle" fill="#000000" fill-rule="nonzero" x="64" y="312" width="48" height="16"></rect>
                <rect id="Rectangle" fill="#000000" fill-rule="nonzero" x="144" y="392" width="48" height="16"></rect>
                <rect id="Rectangle" fill="#000000" fill-rule="nonzero" x="224" y="392" width="48" height="16"></rect>
                <rect id="Rectangle" fill="#000000" fill-rule="nonzero" x="64" y="392" width="48" height="16"></rect>
            </g>
        </g>
    </g>
</svg>