<?xml version="1.0" encoding="UTF-8"?>
<svg width="1024px" height="1024px" viewBox="0 0 1024 1024" version="1.1" xmlns="http://www.w3.org/2000/svg" xmlns:xlink="http://www.w3.org/1999/xlink">
    <title>Artboard</title>
    <defs>
        <filter id="filter-1">
            <feColorMatrix in="SourceGraphic" type="matrix" values="0 0 0 0 1.000000 0 0 0 0 1.000000 0 0 0 0 1.000000 0 0 0 1.000000 0"></feColorMatrix>
        </filter>
        <filter id="filter-2">
            <feColorMatrix in="SourceGraphic" type="matrix" values="0 0 0 0 1.000000 0 0 0 0 1.000000 0 0 0 0 1.000000 0 0 0 1.000000 0"></feColorMatrix>
        </filter>
    </defs>
    <g id="Artboard" stroke="none" stroke-width="1" fill="none" fill-rule="evenodd">
        <g filter="url(#filter-1)" id="bill">
            <g transform="translate(16.000000, 0.000000)">
                <path d="M964.806167,0 L26.1938326,0 C11.7872247,0 0,11.7977384 0,26.2171965 C0,40.6366546 11.7872247,52.434393 26.1938326,52.434393 L82.7288546,52.434393 L82.7288546,997.127374 C82.7288546,1006.74035 87.9676211,1015.69789 96.4806167,1020.2859 C104.993612,1024.87391 115.252863,1024.43695 123.329295,1018.97504 L237.054185,943.163644 L351.215639,1019.19351 C359.946916,1025.09238 371.515859,1025.09238 380.247137,1019.19351 L493.972026,943.382121 L608.13348,1019.41199 C616.864758,1025.31086 628.4337,1025.31086 637.164978,1019.41199 L750.889868,943.600597 L865.051322,1019.63047 C869.41696,1022.47066 874.437445,1024 879.45793,1024 C883.605286,1024 887.970925,1022.90762 891.9,1020.94133 C900.412996,1016.35332 905.651762,1007.39578 905.651762,997.782803 L905.215198,53.0898229 L964.806167,53.0898229 C979.212775,53.0898229 991,41.2920845 991,26.8726264 C991,12.4531683 979.212775,0 964.806167,0 Z M853.482379,948.188607 L765.514758,889.636868 C756.78348,883.737999 745.214537,883.737999 736.48326,889.636868 L622.75837,965.666738 L508.596916,889.636868 C499.865639,883.737999 488.296696,883.737999 479.565419,889.636868 L365.840529,965.448261 L251.679075,889.636868 C242.947797,883.737999 231.378855,883.737999 222.647577,889.636868 L135.11652,947.97013 L135.11652,52.2159164 L853.264097,52.2159164 L853.482379,948.188607 Z" id="Shape" fill="#000000" fill-rule="nonzero"></path>
                <path d="M255.212425,419 L529.787575,419 C544.204409,419 556,407.075 556,392.5 C556,377.925 544.204409,366 529.787575,366 L255.212425,366 C240.795591,366 229,377.925 229,392.5 C229,407.075 240.577154,419 255.212425,419 Z" id="Path" fill="#000000" fill-rule="nonzero"></path>
                <path d="M255.294416,510 L461.705584,510 C476.167513,510 488,498.075 488,483.5 C488,468.925 476.167513,457 461.705584,457 L255.294416,457 C240.832487,457 229,468.925 229,483.5 C229,498.075 240.613367,510 255.294416,510 Z" id="Path" fill="#000000" fill-rule="nonzero"></path>
                <path d="M667.209386,419 L735.790614,419 C750.205776,419 762,407.075 762,392.5 C762,377.925 750.205776,366 735.790614,366 L667.209386,366 C652.794224,366 641,377.925 641,392.5 C641,407.075 652.575812,419 667.209386,419 Z" id="Path" fill="#000000" fill-rule="nonzero"></path>
                <path d="M667.209386,510 L735.790614,510 C750.205776,510 762,498.075 762,483.5 C762,468.925 750.205776,457 735.790614,457 L667.209386,457 C652.794224,457 641,468.925 641,483.5 C641,498.075 652.575812,510 667.209386,510 Z" id="Path" fill="#000000" fill-rule="nonzero"></path>
                <path d="M255.212425,209 L529.787575,209 C544.204409,209 556,197.075 556,182.5 C556,167.925 544.204409,156 529.787575,156 L255.212425,156 C240.795591,156 229,167.925 229,182.5 C229,197.075 240.577154,209 255.212425,209 Z" id="Path" fill="#000000" fill-rule="nonzero"></path>
                <path d="M255.294416,300 L461.705584,300 C476.167513,300 488,288.075 488,273.5 C488,258.925 476.167513,247 461.705584,247 L255.294416,247 C240.832487,247 229,258.925 229,273.5 C229,288.075 240.613367,300 255.294416,300 Z" id="Path" fill="#000000" fill-rule="nonzero"></path>
                <path d="M661.209386,209 L729.790614,209 C744.205776,209 756,197.075 756,182.5 C756,167.925 744.205776,156 729.790614,156 L661.209386,156 C646.794224,156 635,167.925 635,182.5 C635,197.075 646.575812,209 661.209386,209 Z" id="Path" fill="#000000" fill-rule="nonzero"></path>
                <path d="M661.209386,300 L729.790614,300 C744.205776,300 756,288.075 756,273.5 C756,258.925 744.205776,247 729.790614,247 L661.209386,247 C646.794224,247 635,258.925 635,273.5 C635,288.075 646.575812,300 661.209386,300 Z" id="Path" fill="#000000" fill-rule="nonzero"></path>
                <path d="M255.212425,632 L529.787575,632 C544.204409,632 556,620.075 556,605.5 C556,590.925 544.204409,579 529.787575,579 L255.212425,579 C240.795591,579 229,590.925 229,605.5 C229,620.075 240.577154,632 255.212425,632 Z" id="Path" fill="#000000" fill-rule="nonzero"></path>
                <path d="M255.294416,722 L461.705584,722 C476.167513,722 488,710.075 488,695.5 C488,680.925 476.167513,669 461.705584,669 L255.294416,669 C240.832487,669 229,680.925 229,695.5 C229,710.075 240.613367,722 255.294416,722 Z" id="Path" fill="#000000" fill-rule="nonzero"></path>
                <path d="M667.209386,632 L735.790614,632 C750.205776,632 762,620.075 762,605.5 C762,590.925 750.205776,579 735.790614,579 L667.209386,579 C652.794224,579 641,590.925 641,605.5 C641,620.075 652.575812,632 667.209386,632 Z" id="Path" fill="#000000" fill-rule="nonzero"></path>
                <path d="M667.209386,722 L735.790614,722 C750.205776,722 762,710.075 762,695.5 C762,680.925 750.205776,669 735.790614,669 L667.209386,669 C652.794224,669 641,680.925 641,695.5 C641,710.075 652.575812,722 667.209386,722 Z" id="Path" fill="#000000" fill-rule="nonzero"></path>
            </g>
        </g>
        <rect id="Rectangle" fill="#161616" x="651" y="341" width="356" height="509"></rect>
        <g filter="url(#filter-2)" id="calculator">
            <g transform="translate(651.000000, 341.000000)">
                <path d="M347.52381,0 L8.47619048,0 C3.79521429,0 0,3.7984125 0,8.48333333 L0,483.55 C0,497.605823 11.3845833,509 25.4285714,509 L330.571429,509 C344.615417,509 356,497.605823 356,483.55 L356,8.48333333 C356,3.7984125 352.204786,0 347.52381,0 Z M339.047619,483.55 C339.047619,488.234921 335.252405,492.033333 330.571429,492.033333 L25.4285714,492.033333 C20.7475952,492.033333 16.952381,488.234921 16.952381,483.55 L16.952381,16.9666667 L339.047619,16.9666667 L339.047619,483.55 Z" id="Shape" fill="#000000" fill-rule="nonzero"></path>
                <path d="M313.529412,34 L42.4705882,34 C37.7927059,34 34,37.805875 34,42.5 L34,144.5 C34,158.583438 45.3770588,170 59.4117647,170 L296.588235,170 C310.622941,170 322,158.583438 322,144.5 L322,42.5 C322,37.805875 318.207294,34 313.529412,34 Z M305.058824,144.5 C305.058824,149.194125 301.266118,153 296.588235,153 L59.4117647,153 C54.7338824,153 50.9411765,149.194125 50.9411765,144.5 L50.9411765,51 L305.058824,51 L305.058824,144.5 Z" id="Shape" fill="#000000" fill-rule="nonzero"></path>
                <rect id="Rectangle" fill="#000000" fill-rule="nonzero" x="153" y="246" width="51" height="17"></rect>
                <rect id="Rectangle" fill="#000000" fill-rule="nonzero" x="237" y="246" width="51" height="17"></rect>
                <rect id="Rectangle" fill="#000000" fill-rule="nonzero" x="68" y="246" width="51" height="17"></rect>
                <rect id="Rectangle" fill="#000000" fill-rule="nonzero" x="153" y="331" width="51" height="17"></rect>
                <rect id="Rectangle" fill="#000000" fill-rule="nonzero" x="237" y="331" width="51" height="17"></rect>
                <rect id="Rectangle" fill="#000000" fill-rule="nonzero" x="68" y="331" width="51" height="17"></rect>
                <rect id="Rectangle" fill="#000000" fill-rule="nonzero" x="153" y="416" width="51" height="17"></rect>
                <rect id="Rectangle" fill="#000000" fill-rule="nonzero" x="237" y="416" width="51" height="17"></rect>
                <rect id="Rectangle" fill="#000000" fill-rule="nonzero" x="68" y="416" width="51" height="17"></rect>
            </g>
        </g>
    </g>
</svg>